<svg width="986" height="565" viewBox="0 0 986 565" xmlns="http://www.w3.org/2000/svg">
    <g fill="none" fill-rule="evenodd">
        <path d="M.004 565H986V146.246H.005V565zm0 0z" fill="#323543"/>
        <path d="M847.52 450.56c-6.957 0-12.652 6.224-12.652 13.83v84.945c0 7.606 5.695 13.83 12.65 13.83 6.96 0 12.652-6.224 12.652-13.83V464.39c0-7.606-5.693-13.83-12.65-13.83m-50.6 24.39c-6.955 0-12.647 6.224-12.647 13.83v29.405c0 7.605 5.692 13.828 12.646 13.828 6.956 0 12.65-6.223 12.65-13.828V488.78c0-7.606-5.694-13.83-12.65-13.83m-126.494-12.87c-6.958 0-12.65 6.226-12.65 13.832v26.822c0 7.606 5.692 13.83 12.65 13.83 6.96 0 12.65-6.224 12.65-13.83v-26.822c0-7.606-5.69-13.83-12.65-13.83M543.93 474.95c-6.955 0-12.647 6.224-12.647 13.83v62.39c0 7.604 5.692 13.83 12.646 13.83 6.956 0 12.65-6.226 12.65-13.83v-62.39c0-7.606-5.694-13.83-12.65-13.83m-126.494-6.083c-6.958 0-12.65 6.224-12.65 13.83v6.917c0 7.606 5.692 13.828 12.65 13.828s12.65-6.222 12.65-13.828v-6.918c0-7.605-5.692-13.83-12.65-13.83m-50.598-27.586c-6.958 0-12.65 6.225-12.65 13.83v34.616c0 7.605 5.692 13.83 12.65 13.83s12.65-6.225 12.65-13.83V455.11c0-7.605-5.692-13.83-12.65-13.83m0-62.764c-6.958 0-12.65 6.224-12.65 13.83v2.104c0 7.608 5.692 13.83 12.65 13.83s12.65-6.222 12.65-13.83v-2.103c0-7.607-5.692-13.83-12.65-13.83m-50.598 15.127c-6.957 0-12.648 6.225-12.648 13.83V437c0 7.607 5.69 13.83 12.647 13.83 6.956 0 12.65-6.223 12.65-13.83v-29.525c0-7.606-5.694-13.83-12.65-13.83m-126.496 57.183c-6.958 0-12.65 6.225-12.65 13.83v63.765c0 7.608 5.692 13.832 12.65 13.832s12.65-6.224 12.65-13.832v-63.766c0-7.604-5.692-13.83-12.65-13.83m-50.598 21.59c-6.958 0-12.65 6.224-12.65 13.83v33.53c0 7.61 5.692 13.832 12.65 13.832s12.65-6.223 12.65-13.833v-33.532c0-7.605-5.692-13.83-12.65-13.83M63.25 441.28c-6.96 0-12.652 6.225-12.652 13.83v38.162c0 7.606 5.693 13.83 12.65 13.83 6.957 0 12.648-6.224 12.648-13.83v-38.16c0-7.607-5.69-13.832-12.647-13.832" fill="#016363"/>
        <path d="M978.662 128.983c-2.907-6.125-3.347-18.7-11.045-20.757-1.873-.5-3.103-1.57-3.816-2.873-1.03-.2-2.064-.656-3.03-1.454-7.243-5.976-8.07-16.886-8.078-25.585-.007-7.872.635-15.798 1-23.663.192-4.186.428-8.38.228-12.57-.1-2.096-.074-7.404-2.077-8.88-1.712-1.264-5.888.306-7.422 1.13-3.05 1.64-3.155 4.998-3.35 8.19-.55 8.97.09 18.397 1.084 27.318 1.083 9.735.612 21.073-9.202 26.307-8.27 4.41-18.8 1.44-24.76-5.418-3.816-4.395-4.898-9.69-5.497-15.318-.41-3.85-.41-10.928-5.042-12.587-9.198-3.294-7.33 16.184-7.185 20.34.392 11.24.352 23.574-3.57 34.217-1.43 3.884-5.28 4.972-8.402 4.108-.87.448-1.914.697-3.156.634-9.984-.506-17.803-5.51-19.642-15.763-1.41-7.862.924-16.403-1.26-24.066-.87-3.05-3.21-6.576-6.843-5.246-4.845 1.772-5.912 8.853-8.174 12.816-6.64 11.64-17.704 13.38-29.34 8.046-3.222-1.478-3.87-4.347-2.976-6.888-3.916-5.36-4.487-11.55-4.335-18.133.18-7.757.12-15.757-.94-23.45-.307-2.21-.716-6.835-2.535-8.484-1.378-1.25-4.002-.996-5.738-.777-2.386.3-4.828.866-5.657 3.247-.856 2.457.15 6.132.593 8.55 1.136 6.226 2.07 12.45 2.99 18.708.92 6.253 1.828 13.082-.912 19.02-2.995 6.493-9.576 8.14-15.33 11.298-6.53 3.584-11.704 9.12-19.185 10.89-.902.212-1.742.24-2.52.13-1.035 1.1-2.54 1.813-4.53 1.766-9.238-.215-16.766-4.397-20.067-13.278-2.704-7.273-2.153-15.248-3.165-22.827-.434-3.254-1.165-7.132-3.396-9.704-3.294-3.795-8.492-2.94-12.7-4.766-9.722-4.22-10.532-19.886-11.13-28.882-.055-.837.032-1.585.223-2.253-.76-.814-1.597-1.454-2.54-1.71-2.65-.716-7.216 1.107-8.398 3.64-1.415 3.03-.54 7.435-.21 10.607.432 4.135 1.14 8.3.943 12.47-.238 5.078-1.815 9.996-4.37 14.362-.338 1.435-1.108 2.737-2.348 3.492-2.78 3.633-6.28 6.725-10.28 8.958-3.974 2.22-8.03 2.773-12.463 3.397-2.47.347-6.293.348-7.206 3.086-1.16 3.48-4.253 4.75-7.11 4.404-7.412 9.09-14.806 21.032-27.895 16.24-14.56-5.333-16.605-24.287-17.618-37.466-.453-5.887.298-13.78-2.54-19.145-.912-1.725-2.527-2.497-4.276-2.578-.126.468-.304.944-.548 1.423-.934 1.834-1.728 3.728-2.485 5.637 3.216 1.102 4.888 4.55 4.135 7.82-1.13 4.91-2.35 9.85-4.984 14.208-.73 1.208-1.66 2.015-2.675 2.502-.136 5.272-1.562 10.236-6.28 14.455-11.406 10.195-26.474-.093-30.513-12.166-1.152-3.444.562-6.024 3.08-7.196-1.583-6.828-2.422-13.844-3.93-20.687-1.22-5.528-2.62-10.912-3.787-16.4-1.827.175-3.65.377-5.465.64-1.718 5.645-2.92 11.433-4.328 17.165 1.81-.033 3.663.636 4.89 1.862 2.606 2.607 2.257 6.477 0 9.132-4.31 5.07-7.84 10.742-12.334 15.667-.878.96-1.84 1.55-2.82 1.832-.944 1.738-2.746 2.933-5.413 2.724-20.41-1.602-22.092-25.923-22.094-41.817-.003-8.728.622-17.434 1.004-26.148.15-3.398.293-6.81.172-10.21-.027-.766-.072-1.528-.127-2.292l-.035-.512s-.002-.003-.006-.023c-.107-.587-.476-1.76-.694-2.683-.6.076-1.222-.013-1.82.067-1.16.152-2.398.453-3.474.91-2.168.92-3.665 2.547-4.598 4.692-2.28 5.24-1.703 11.733-1.352 17.267.65 10.226 2.236 21.273.124 31.42-2.52 12.104-14.765 19.387-26.17 13.19-11.588-6.298-11.597-17.95-11.472-29.445.034-3.148.878-8.84-2.953-9.83-3.155-.815-8.714.203-10.31 3.324-1.054 2.055-.828 4.87-1.607 7.07-.943 2.662-2.598 4.843-4.94 6.432-2.65 1.8-5.603 2.51-8.742 2.902-1.687.21-4.55-.067-5.66 1.484-.76 1.056-1.675 1.785-2.663 2.238-1.303 6.427-.915 12.94-1.414 19.544-.575 7.607-3.15 13.368-6.923 19.883-2.72 4.696-8.412 3.556-10.882.195-6.378-.293-13.13-5.465-16.352-11.62-2.888-5.516-3.876-11.763-4.32-17.905-.264-3.635 1.27-9.475-2.794-11.1-6.672-2.668-14.086 5.148-19.748 7.667-9.79 4.353-20.207.86-26.184-8.016-2.46-3.652-3.546-7.84-4.984-11.9-1.6.356-3.08 1.034-4.594 1.647-.547.22-1.14.296-1.743.275-.046 11.042 1.513 22.122.115 33.198-.845 6.7-2.424 14.11-7.495 18.99-5.396 5.194-13.034 5.24-19.643 2.538-.468-.19-.914-.42-1.338-.68-2.018.103-4.01-.83-5.19-3.287-1.766-3.673-4.624-6.612-6.45-10.238-1.627-3.233-1.968-6.59-2.95-10.012-1.105-3.846-3.62-3.298-7.02-4.62-3.544-1.38-6.4-3.816-8.55-6.934-7.113-10.3-3.773-23.738-9.193-34.544-2.156-4.298-7.323-5.166-9.676-.25-2.854 5.96.046 15.195.9 21.376 1.05 7.603 1.554 15.337.744 22.99-.66 6.25-1.797 13.28-6.89 17.55-9.26 7.763-25.442-1.076-31.904-9.01-1.927-2.368-1.892-5.118-.82-7.315-.56-4.475-1.047-8.85-1.81-13.294-.96-5.6-1.912-12.42-4.926-16.968-2.5 2.363-4.972 6.006-6.456 9.555-4.77 11.415-3.197 24.41-3.594 36.46-.266 8.075-.693 19.757-9.174 23.812-9.993 4.778-19.118-5.642-22.073-14.087-3.734-10.67-5.92-22.39-6.98-33.617-.585-6.184-.794-12.426-.714-18.637.025-1.922.135-3.85.08-5.774-.01-.334-.188-1.402-.21-1.968-.777.22-1.814.454-1.757.44-.616.152-1.336.294-1.905.584-1.2.614-1.89 1.322-2.632 2.396-1.84 2.668-2.603 6.03-4.068 8.9-4.615 9.03-14.45 14.16-23.985 8.984-4.883-2.65-9.34-7.5-11.783-12.46-2.468-5.014-2.03-10.267-2.712-15.63-1.296-10.203-6.524-.005-7.498 4.564-2.732 12.812-2.046 29.78-18.356 33.038-8.557 1.71-14.947-1.586-20.81-7.64-2.317-2.39-4.572-5.717-7.436-7.47-1.676-1.024-1.976-1.448-2.46.38-2.155 8.122-1.577 17.23-2.322 25.6-.622 6.99-1.072 13.996-1.48 21.002-.295 5.077-.25 10.38-1.627 15.318-2.71 9.72-10.99 14.14-20.704 11.545-3.58-.958-6.47-2.716-8.884-4.97v315.1c0 7.602 5.693 13.826 12.65 13.826 6.958 0 12.65-6.224 12.65-13.827V310.61c0-7.607 5.693-13.833 12.648-13.833 6.958 0 12.65 6.226 12.65 13.832v65.8c0 7.605 5.693 13.83 12.65 13.83 6.956 0 12.65-6.225 12.65-13.83v-120.5c0-7.606 5.69-13.83 12.65-13.83 6.956 0 12.65 6.224 12.65 13.83v86.63c0 7.608 5.69 13.83 12.65 13.83 6.955 0 12.648 6.226 12.648 13.832v46.92c0 7.606 5.69 13.828 12.65 13.828 6.957 0 12.65-6.222 12.65-13.83v-4.587c0-7.607 5.69-13.83 12.647-13.83 6.958 0 12.65-6.224 12.65-13.83v-19.55c0-7.607 5.693-13.832 12.65-13.832 6.958 0 12.65 6.227 12.65 13.834v19.55c0 7.606 5.693 13.83 12.65 13.83 6.956 0 12.65-6.224 12.65-13.83V316.32c0-7.606 5.69-13.828 12.647-13.828 6.958 0 12.65 6.222 12.65 13.827v92.086c0 7.606-5.692 13.83-12.65 13.83-6.956 0-12.647 6.223-12.647 13.828v57.207c0 7.606 5.69 13.83 12.647 13.83 6.958 0 12.65-6.224 12.65-13.83v-39.316c0-7.607 5.692-13.827 12.65-13.827s12.65-6.226 12.65-13.832v-115.69c0-7.605 5.692-13.83 12.65-13.83s12.65 6.225 12.65 13.83v35.4c0 7.605 5.692 13.83 12.648 13.83 6.958 0 12.65-6.225 12.65-13.83v-55.92c0-7.606 5.693-13.83 12.65-13.83 6.956 0 12.65 6.224 12.65 13.83v55.92c0 7.605 5.69 13.83 12.65 13.83 6.956 0 12.65-6.225 12.65-13.83V267.08c0-7.608 5.69-13.832 12.647-13.832 6.958 0 12.65 6.224 12.65 13.83v44.846c0 7.606 5.692 13.83 12.65 13.83s12.65-6.224 12.65-13.83v-27.35c0-7.61 5.69-13.834 12.648-13.834 6.958 0 12.65 6.225 12.65 13.834v68.255c0 7.604-5.692 13.827-12.65 13.827-6.957 0-12.65-4.266-12.65-9.483 0-5.218-5.69-9.486-12.648-9.486-6.958 0-12.65 6.223-12.65 13.828v14.89c0 7.605 5.692 13.828 12.65 13.828s12.65 6.226 12.65 13.83v4.34c0 7.607 5.69 13.83 12.648 13.83 6.958 0 12.65-6.223 12.65-13.83v-8.027c0-7.606 5.693-13.832 12.65-13.832 6.958 0 12.65-6.222 12.65-13.83v-21.3c0-7.607 5.694-13.83 12.65-13.83 6.954 0 12.648 6.223 12.648 13.83v51.172c0 7.607-5.693 13.83-12.647 13.83-6.956 0-12.65 6.226-12.65 13.83v77.232c0 7.604 5.694 13.826 12.65 13.826s12.65-6.223 12.65-13.828v-53.48c0-7.605 5.693-13.827 12.65-13.827 6.956 0 12.65-6.224 12.65-13.83V316.32c0-7.606 5.693-13.828 12.645-13.828 6.96 0 12.65 6.222 12.65 13.827v120.546c0 7.607 5.695 13.83 12.65 13.83 6.96 0 12.654 6.224 12.654 13.83v28.745c0 7.606 5.692 13.83 12.648 13.83 6.958 0 12.65-6.224 12.65-13.83v-28.743c0-7.607 5.69-13.83 12.652-13.83 6.956 0 12.65-6.224 12.65-13.83v-58.13c0-7.607 5.69-13.83 12.646-13.83 6.958 0 12.65 6.223 12.65 13.83v15.847c0 7.606 5.693 13.83 12.65 13.83 6.96 0 12.65-6.224 12.65-13.83v-92.69c0-7.606 5.693-13.832 12.65-13.832 6.955 0 12.646 6.226 12.646 13.833v44.11c0 7.605 5.695 13.83 12.653 13.83 6.955 0 12.65 6.224 12.65 13.83v6.418c0 7.607-5.695 13.83-12.65 13.83-6.96 0-12.654 6.224-12.654 13.83v28.984c0 7.605 5.695 13.83 12.653 13.83 6.955 0 12.65-6.225 12.65-13.83v-25.25c0-7.606 5.69-13.826 12.65-13.826 6.953 0 12.646 6.22 12.646 13.828v33.033c0 7.606 5.693 13.83 12.65 13.83 6.957 0 12.65-6.224 12.65-13.83v-87.935c0-7.603 5.693-13.83 12.648-13.83 6.956 0 12.65 6.227 12.65 13.83v59.15c0 7.604 5.692 13.828 12.65 13.828 6.956 0 12.65-6.224 12.65-13.83V290.088c0-7.607 5.694-13.832 12.65-13.832s12.65 6.225 12.65 13.832v94.495c0 7.605 5.69 13.83 12.65 13.83 6.957 0 12.65-6.225 12.65-13.83v-40.85c0-7.604 5.69-13.83 12.648-13.83 6.958 0 12.65 6.226 12.65 13.83v73.39c0 7.606-5.692 13.828-12.65 13.828s-12.65 6.225-12.65 13.83v41.013c0 7.607 5.692 13.83 12.65 13.83s12.65-6.223 12.65-13.83v-32.65c0-7.606 5.692-13.83 12.648-13.83 6.96 0 12.65-6.225 12.65-13.832V277.317c0-7.605 5.693-13.83 12.65-13.83 6.958 0 12.65 6.225 12.65 13.83v49.773c0 7.605 5.693 13.83 12.65 13.83 5.56 0 10.3-3.98 11.985-9.456v-191.82c-3.163-3.18-5.705-7.22-7.338-10.662h-.015zM151.796 319.335c0 7.606-5.693 13.83-12.65 13.83-6.96 0-12.65-6.224-12.65-13.83v-52.61c0-7.606 5.69-13.83 12.65-13.83 6.957 0 12.65 6.224 12.65 13.83v52.61zM607.18 417.12c0 7.608-5.694 13.83-12.652 13.83-6.956 0-12.647-6.222-12.647-13.83v-65.7c0-7.607 5.693-13.83 12.65-13.83 6.957 0 12.65 6.223 12.65 13.83v65.703-.003z" fill="#016363"/>
        <path d="M974.017 367.755c-6.958 0-12.65 6.224-12.65 13.83v66.667c0 7.605 5.692 13.828 12.65 13.828 5.56 0 10.3-3.974 11.984-9.447v-79.966c-1.683-2.846-6.422-4.912-11.982-4.912" fill="#016363"/>
        <path d="M974.016 339.047c-6.958 0-12.65 6.224-12.65 13.83v25.585c0 7.607 5.692 13.83 12.65 13.83 5.56 0 10.298-3.975 11.984-9.45v-34.345c-1.686-5.474-6.425-9.45-11.984-9.45m-202.393 17.867c-6.958 0-12.65 6.222-12.65 13.827v18.124c0 7.605 5.692 13.83 12.65 13.83s12.65-6.225 12.65-13.83V370.74c0-7.604-5.692-13.826-12.65-13.826M569.23 339.047c-6.957 0-12.652 6.224-12.652 13.83v13.095c0 7.607 5.695 13.833 12.65 13.833 6.96 0 12.652-6.226 12.652-13.833v-13.096c0-7.605-5.693-13.83-12.65-13.83m-202.392-62.203c-6.958 0-12.65 5.537-12.65 12.303 0 6.768 5.692 12.307 12.65 12.307s12.65-5.54 12.65-12.307c0-6.766-5.692-12.303-12.65-12.303m-151.796 65.924c-6.956 0-12.65 6.224-12.65 13.83v30.13c0 7.606 5.695 13.832 12.65 13.832 6.958 0 12.65-6.228 12.65-13.833v-30.132c0-7.605-5.692-13.83-12.65-13.83M0 .367V109.38.366zM245.167 30.89l.016-.14c.025-.227.07-2.567.14-2.61-5.79 3.552-2.596 3.262-.156 2.75" fill="#38B888"/>
        <path d="M977.826 101.915c1.417 1.232 2.992 2.256 4.74 3.035-1.347-1.36-2.955-2.413-4.74-3.035zm-1.3 17.94c-.67-1.25-.918-2.58-.797-3.85-6.11-3.162-10.65-11.58-14.115-18.21-5.672-10.86-8.125-19.94-9.486-31.976-.636-5.62-1.053-11.26-1.467-16.897-.193-2.622-.38-5.245-.615-7.864-.104-1.165-.218-2.328-.344-3.49-.108-.978-.226-1.78-.22-1.74-.83-4.46-2.64-7.473-5.986-3.05-3.64 4.806-1.917 13.186-1.417 18.68 1.44 15.8 3.336 33.236-9.287 45.26-.918.874-1.91 1.4-2.907 1.65-1.78 2.196-4.786 3.29-7.912 1.355-7.033-4.353-14.54-10.237-17.032-18.49-1.222-4.053-.28-16.028-5.978-17.028-1.657-.29-3.427 1.107-4.53 2.15-1.99 1.885-2.25 2.54-2.682 4.385-.768 3.285-.768 7.42-.736 11.395.11 14.403 3.19 46.778-20.874 40.686-1.683-.427-2.86-1.31-3.602-2.417-10.015-2.54-15.08-10.094-15.574-21.015-.227-5.04.403-10.07.64-15.1.068-1.48.173-3.185.158-4.87-2.06.81-4.128 1.692-6.102 2.713.268 1.047.288 2.166 0 3.257-1.37 5.186-3.917 9.956-7.646 13.825-2.428 2.52-6.695 2.438-9.133 0-.043-.044-.08-.093-.124-.138-2.168 2.197-4.64 3.934-7.56 4.79-4.532 1.332-7.58-2.086-7.93-5.727-.675-.43-1.31-.99-1.857-1.73-5.365-7.245-5.78-19.264-7.37-27.79-1.624-8.69-3.015-18.697-6.962-26.573-.302.208-.605.42-.91.627-.412.283-.824.565-1.23.855.02-.017-.556.42-.803.597-.24.203-.668.563-.73.618-.442.4-.85.82-1.27 1.243-.09.09-.165.173-.22.236-.284.42-.538.85-.778 1.3-.227.424-.5.8-.805 1.138 1.27 6.077 3.146 11.9 3.274 18.2.134 6.7-.34 13.794-2.648 20.14-3.18 8.75-9.258 14.3-16.883 17.176 1.27 2.69.807 5.94-2.717 7.517-11.624 5.202-22.66 3.564-32.44-1.804-2.466-.9-4.538-2.3-6.276-4.06-3.37-2.514-6.553-5.43-9.514-8.61-3.248-3.49-1.628-7.983 1.413-10.033-.202-1.14-.374-2.27-.52-3.38-.564-4.255-.5-10.112-3.872-13.243-1.746-1.623-4.284-2.77-6.9-3.753-1.865.537-3.925.07-5.585-2.015 0-.003-.003-.005-.006-.007-.406-.16-.804-.318-1.18-.48-3.442-1.49-3.98-4.576-2.842-7.21-2.53-7.615-2.388-16.187-6.024-23.43-.144-.284-.222-.47-.272-.59-.14.05-.3.12-.482.24-1.545 1.038-2.722 1.472-3.71 3.236-2.49 4.453-2.39 10.326-2.895 15.262-.674 6.582-2.016 11.992-6.554 17.08-4.845 5.433-11.627 9-18.21 11.867-5.76 2.508-12.074 3.656-17.748 6.198-5.553 2.49-7.215 9.568-10.745 14.096-6.496 8.334-14.76 7.693-23.63 6.394-2.05.97-4.54.902-6.672-.995-3.11-.656-5.713-2.753-5.677-6.32.007-.59.115-1.2.307-1.8-2.93-7.325-2.9-16.136-2.928-23.68-.02-5.69.25-11.467-.376-17.135-.21-1.89-.53-3.828-1.23-5.612.03.083-.65-1.116-.604-1.043-.022-.038-.24-.11-.263-.127-1.503-.305-3.04-.26-4.41.137-.454.13-1.017.635-1.248 1.08-1.192 2.295-1.36 5.833-1.395 9.25-.096 8.815 1.16 18.356-2.705 26.603-3.648 7.786-13.95 13.4-22.423 10.588-8.644-2.87-11.257-13.03-12.337-21.018-1.054-7.805-.88-15.61-.78-23.462.053-4.227 1.24-11.842-2.424-14.883-4.217-3.496-10.05-.584-11.51 4.032-2.772 8.768.305 18.79-1.407 27.84-2.13 11.272-11.264 16.312-22.09 16.73-2.494.097-4.232-1-5.227-2.585-.494-.43-.95-.96-1.346-1.61-5.07-8.315-6.094-18.596-6.707-28.11-.524-8.155-.91-16.45-.545-24.62.26-5.8 1.59-13.56-1.166-18.965-2.173-4.262-8.85-3.352-11.86-1.184-.15.11-.34.293-.547.515.4 9.562.435 19.13.435 28.7 0 2.182-.89 3.785-2.2 4.822.796 8.213 1.11 16.967-2.84 24.028-4.73 8.453-17.382 12.55-24.457 4.616-6.186-6.936-6.1-18.9-7.222-27.13-.343-2.536-.74-5.075-1.326-7.57-.215-.91-.46-1.81-.728-2.706-.157-.524-.33-1.05-.536-1.558l-.005-.01c-.05-.1-.117-.238-.21-.434-.606-1.262-.662-1.22-.857-1.445-.132-.152-.293-.31-.46-.46-.126-.028-.352-.02-.524-.012-.49.027-.376-.31-1.294.363-2.538 1.862-3.788 5.704-5.382 8.312-1.945 3.182-4.302 6.27-7.55 8.222-3.447 2.074-7.54 3.124-11.39 4.162-2.13.573-4.978.926-6.482 2.724-3.49 4.168-1.148 13.862-1.168 18.832-.03 6.93-1.2 14.324-6.53 19.262-5.938 5.5-16.182 7.157-23.494 3.732-7.64-3.578-10.548-11.5-11.516-19.34-.233-1.893.78-3.654 2.26-4.858-1.888-3.622-3.938-7.12-6.853-10.03-1.216-1.212-1.785-2.564-1.882-3.893-2.376.334-4.685.864-6.6 1.19-.584 1.727-1.928 3.206-4.192 3.866-9.357 2.73-22.38-.34-27.742-8.953-.93-1.497-1.16-2.964-.913-4.285-1.784-2.79-2.954-5.895-4.885-8.576-3.68-5.102-9.75-.38-11.02 4.085-3.908 13.734 1.54 28.508-1.55 42.44-1.78 8.02-6.966 14.826-15.214 16.8-6.68 1.6-12.91-1.065-15.925-7.296-2.886-5.963-2.69-12.87-3.37-19.316-.287-2.72-.24-3.645-1.95-5.387-2.6-2.653-6.734-3.97-9.945-5.7-9.326-5.03-15.03-13.47-15.936-24.1-.385-4.475.295-8.657.792-13.057-.5.173-.95.334-1.126.43-6.42 3.436-11.11 9.27-10.845 16.215.37 9.714 4.39 18.916 4.448 28.707.05 8.344-2.956 17.563-11.89 20.018-9.147 2.512-18.24-1.863-23.917-8.973-5.14-6.433-8.844-14.786-9.116-23.068-.13-3.906.01-7.818-.098-11.725-.018-.657-.403-3.643-.65-5.8-.19.136-.243.156-.01-.078l-.007-.063c-1.09.882-2.37 1.6-3.405 2.59-2.013 1.92-4.685 4.416-5.694 7.1-1.182 3.146-.465 8.036-.1 11.352.49 4.446 1.402 8.842 2.096 13.26 1.397 8.88-4.072 14.37-8.015 22.8-3.13 6.69-2.992 16.322-10.774 14.662-12.73-2.714-20.44-20.082-23.785-31.215-2.57-8.556-1.363-17.442-.695-26.18.322-4.23 2.18-21.374-6.685-16.07-2.373 1.42-3.78 3.837-4.962 6.506-.44 1.206-.94 2.394-1.478 3.565-.846 2.074-1.75 4.1-3.005 5.78-.216.38-.433.764-.653 1.14-.605 1.03-1.463 1.554-2.367 1.703-6.63 4.51-16.39 2.554-22.284-2.457-6.655-5.66-7.823-14.295-8.722-22.48-.36-3.275-.5-7.312-3.876-9.017-2.736-1.383-4.733.048-6.313 2.41-.235.352-.435 1.248-.52 3.117-.115 2.473-.085 4.944-.01 7.418.17 5.66.597 11.34.29 17.006-.606 11.204-6 23.215-19.457 19.075-4.886-1.5-8.395-4.393-11.883-7.48-.287-.24-.568-.486-.843-.746-1.718-1.53-3.46-3.085-5.38-4.522-7.27-5.434-11.9 2.46-12.127 9.07-.29 8.505.977 17.035 2.242 25.41 1.296 8.596-5.948 8.274-7.894 16.067C22.8 127.965 9.958 131.762 0 126.32v217.165c0 7.605 5.694 13.83 12.65 13.83 6.958 0 12.65-6.225 12.65-13.83v-126.34c0-7.606 5.694-13.828 12.65-13.828s12.648 6.222 12.648 13.83v70.49c0 7.604 5.694 13.828 12.65 13.828 6.958 0 12.65-6.224 12.65-13.83V162.95c0-7.606 5.692-13.83 12.65-13.83 6.957 0 12.648 6.224 12.648 13.83v68.68c0 7.608 5.692 13.83 12.65 13.83 6.957 0 12.65-6.222 12.65-13.83v-45.515c0-7.606 5.693-13.83 12.65-13.83 6.958 0 12.65 6.224 12.65 13.83v84.938c0 7.605-5.692 13.83-12.65 13.83-6.957 0-12.65-3.483-12.65-7.734 0-4.258-5.692-7.74-12.648-7.74-6.96 0-12.65 6.225-12.65 13.83v4.395c0 7.605 5.69 13.83 12.65 13.83 6.956 0 12.648 6.222 12.648 13.83v16.382c0 7.61 5.693 13.83 12.65 13.83 6.958 0 12.65-3.874 12.65-8.61 0-4.732 5.692-8.608 12.65-8.608 6.956 0 12.648-6.225 12.648-13.83v-15.75c0-7.604 5.692-13.83 12.65-13.83s12.65 5.977 12.65 13.28c0 7.305 5.692 13.278 12.648 13.278 6.958 0 12.65-6.223 12.65-13.83v-63.62c0-7.607 5.692-13.83 12.648-13.83 6.958 0 12.65 6.223 12.65 13.83v73.932c0 7.605 5.693 13.83 12.65 13.83 6.96 0 12.65-6.225 12.65-13.83v-53.486c0-7.61 5.693-13.834 12.65-13.834 6.96 0 12.65 6.225 12.65 13.834l.002 29.047c0 7.606 5.692 13.83 12.648 13.83 6.957 0 12.65-6.224 12.65-13.83v-47.5c0-7.607 5.692-13.83 12.648-13.83 6.957 0 12.65 3.31 12.65 7.35 0 4.047 5.692 7.355 12.65 7.355 6.957 0 12.65-6.224 12.65-13.83v-24.45c0-7.608 5.69-13.832 12.647-13.832 6.96 0 12.65 6.224 12.65 13.83v34.962c0 7.605 5.692 13.83 12.65 13.83 6.96 0 12.65-6.225 12.65-13.83v-32.18c0-7.605 5.692-13.83 12.65-13.83 6.957 0 12.65 6.225 12.65 13.83v73.95c0 7.604 5.692 13.83 12.65 13.83 6.956 0 12.65-6.226 12.65-13.83V228.74c0-7.604 5.692-13.828 12.647-13.828 6.957 0 12.65 6.224 12.65 13.83v63.98c0 7.604 5.69 13.827 12.648 13.827 6.958 0 12.654-6.225 12.654-13.83V186.57c0-7.605 5.69-13.83 12.644-13.83 6.958 0 12.652 6.225 12.652 13.83v88.083c0 7.607 5.692 13.83 12.65 13.83 6.957 0 12.65-6.223 12.65-13.83v-25.937c0-7.607 5.692-13.83 12.65-13.83 6.957 0 12.65 6.223 12.65 13.83v65.745c0 7.607 5.69 13.83 12.65 13.83 6.957 0 12.65-6.223 12.65-13.83v-43.415c0-7.605 5.69-13.828 12.648-13.828 6.957 0 12.65 6.223 12.65 13.828v57.022c0 7.607 5.69 13.83 12.648 13.83 6.958 0 12.65-6.223 12.65-13.83v-120.27c0-7.608 5.692-13.83 12.65-13.83 6.956 0 12.646 6.222 12.646 13.83V246.2c0 7.605 5.695 13.83 12.652 13.83 6.957 0 12.65 6.222 12.65 13.83v9.62c0 7.606-5.692 13.83-12.65 13.83-6.957 0-12.652 6.226-12.652 13.83v13.306c0 7.605 5.695 13.828 12.652 13.828 6.957 0 12.65-6.122 12.65-13.603 0-7.48 5.693-13.602 12.65-13.602 6.956 0 12.65-6.222 12.65-13.827l-.002-20.125c0-7.607 5.695-13.832 12.65-13.832 6.958 0 12.65-6.224 12.65-13.83V237.88c0-7.607 5.694-13.83 12.646-13.83 6.958 0 12.65 6.223 12.65 13.83v29.47c0 7.606 5.692 13.83 12.65 13.83 6.96 0 12.652 6.225 12.652 13.83v24.576c0 7.607-5.693 13.83-12.652 13.83-6.957 0-12.65 5.375-12.65 11.948s5.692 11.95 12.65 11.95c6.96 0 12.652 3.257 12.652 7.24 0 3.982 5.692 7.24 12.65 7.24 6.957 0 12.65-6.225 12.65-13.83V281.22c0-7.606 5.692-13.828 12.65-13.828 6.957 0 12.65-6.226 12.65-13.832v-37.683c0-7.607 5.692-13.83 12.65-13.83 6.954 0 12.648 6.223 12.648 13.83v108.34c0 7.607 5.693 13.83 12.647 13.83 6.962 0 12.653-6.223 12.653-13.83V209.814c0-7.605 5.692-13.83 12.65-13.83 6.957 0 12.65 6.225 12.65 13.83l-.002 34.902c0 7.61 5.693 13.832 12.65 13.832 5.56 0 10.3-3.977 11.985-9.454V130.07c-3.274-3.337-7.197-5.962-9.472-10.214h-.002zM202.394 236.07c0 7.605-5.694 13.83-12.65 13.83-6.96 0-12.65-6.225-12.65-13.83v-25.073c0-7.607 5.69-13.83 12.65-13.83 6.957 0 12.65 6.223 12.65 13.83v25.073zm657.776-10.263c0 7.605-5.693 13.83-12.65 13.83-6.957 0-12.65-6.225-12.65-13.83V200.58c0-7.607 5.692-13.83 12.65-13.83 6.957 0 12.65 6.223 12.65 13.83v25.227z" fill="#00C488"/>
        <path d="M468.032 243.457c-6.958 0-12.653 6.224-12.653 13.83v11.9c0 7.606 5.693 13.828 12.65 13.828 6.96 0 12.65-6.222 12.65-13.83v-11.9c0-7.604-5.69-13.828-12.65-13.828m126.5 25.736c-6.96 0-12.65 6.225-12.65 13.83v22.545c0 7.605 5.69 13.83 12.65 13.83 6.957 0 12.65-6.225 12.65-13.83v-22.546c0-7.604-5.693-13.83-12.65-13.83m151.793-13.822c-6.958 0-12.65 6.223-12.65 13.823 0 7.602 5.692 13.822 12.65 13.822s12.647-6.22 12.647-13.822c0-7.6-5.69-13.822-12.647-13.822m101.195-21.408c-6.958 0-12.65 6.224-12.65 13.83v40.045c0 7.606 5.692 13.832 12.65 13.832s12.65-6.228 12.65-13.834V247.79c0-7.604-5.692-13.828-12.65-13.828m63.25 21.275c0 7.5 5.692 13.634 12.647 13.634h12.65V241.6h-12.65c-6.955 0-12.647 6.137-12.647 13.637m63.246-153.97c-6.958 0-12.65-6.225-12.65-13.83V35.72c0-7.607-5.69-13.83-12.648-13.83-6.958 0-12.65 6.223-12.65 13.83v42.214c0 7.605-5.693 13.83-12.65 13.83-6.958 0-12.648-6.225-12.648-13.83v-7.722c0-7.605-5.695-13.83-12.652-13.83-6.958 0-12.65 6.225-12.65 13.83v31.67c0 7.608-5.693 13.83-12.65 13.83-6.958 0-12.65-6.222-12.65-13.83v-19.64c0-7.605-5.69-13.83-12.65-13.83-6.956 0-12.65 5.92-12.65 13.156 0 7.235-5.69 13.154-12.65 13.154-6.955 0-12.646-6.224-12.646-13.83v-34.65c0-7.608-5.693-13.832-12.65-13.832-6.96 0-12.652 6.224-12.652 13.83v35.606c0 7.605-5.69 13.828-12.647 13.828-6.956 0-12.65 2.665-12.65 5.92 0 3.257-5.69 5.92-12.647 5.92s-12.65-6.223-12.65-13.828V75.05c0-7.608-5.692-13.83-12.65-13.83-6.957 0-12.65-6.225-12.65-13.832V35.72c0-7.607-5.69-13.83-12.648-13.83-6.957 0-12.65 6.223-12.65 13.83v22.117c0 7.607-5.69 13.83-12.648 13.83-6.958 0-12.65 2.594-12.65 5.763 0 3.17-5.692 5.763-12.648 5.763-6.96 0-12.65 4.89-12.65 10.866s-5.694 10.87-12.653 10.87c-6.958 0-12.65-6.228-12.65-13.833V57.193c0-7.605-5.69-13.83-12.648-13.83-6.957 0-12.65 6.225-12.65 13.83v21.68c0 7.607-5.69 13.83-12.65 13.83-6.957 0-12.652-6.223-12.652-13.83V45.308c0-7.605-5.69-13.83-12.65-13.83-6.955 0-12.648 6.225-12.648 13.83V65.27c0 7.606-5.693 13.83-12.65 13.83-6.958 0-12.652-6.224-12.652-13.83V14.197c0-7.602-5.683-13.824-12.635-13.83h-.024c-6.95.006-12.64 6.228-12.64 13.83v42.548c0 7.606-5.69 13.828-12.65 13.828-6.956 0-12.65-6.222-12.65-13.828v-17.18c0-7.607-5.69-13.83-12.648-13.83-6.956 0-12.65 4.66-12.65 10.36 0 5.697-5.69 10.36-12.65 10.36-6.956 0-12.65 6.224-12.65 13.83v18.588c0 7.606-5.69 13.83-12.65 13.83-6.956 0-12.65-6.224-12.65-13.83v-13.59c0-7.608-5.69-13.83-12.65-13.83-6.955 0-12.65 2.197-12.65 4.88 0 2.686-5.69 4.885-12.645 4.885-6.958 0-12.65-6.225-12.65-13.832V46.8c0-7.607-5.693-13.83-12.65-13.83-6.958 0-12.65 6.223-12.65 13.83v36.75c0 7.606-5.693 13.83-12.65 13.83-6.958 0-12.65-6.224-12.65-13.83v-7.02c0-7.607-5.692-13.83-12.65-13.83-6.955 0-12.65-6.224-12.65-13.83V35.35c0-7.608-5.692-13.83-12.646-13.83-6.955 0-12.65 6.222-12.65 13.83v37.485c0 7.605-5.69 13.83-12.65 13.83-6.954 0-12.647-6.225-12.647-13.83V51.83c0-7.606-5.693-13.83-12.65-13.83-6.957 0-12.65 6.224-12.65 13.83v42.204c0 7.605-5.693 13.83-12.647 13.83-6.958 0-12.65-6.225-12.65-13.83V46.47c0-7.606-5.693-13.83-12.65-13.83-6.958 0-12.65 6.216-12.65 13.812 0 7.6-5.695 13.814-12.652 13.814-6.956 0-12.648-6.224-12.648-13.83V35.72c0-7.607-5.693-13.83-12.65-13.83-6.958 0-12.65 6.223-12.65 13.83v21.026c0 7.606-5.69 13.828-12.65 13.828-6.955 0-12.648-3.923-12.648-8.717 0-4.794-5.693-8.716-12.65-8.716-6.957 0-12.648 6.225-12.648 13.83v44.534c0 7.607-5.694 13.83-12.65 13.83S0 119.11 0 111.504V227.63c0 7.606 5.694 13.83 12.65 13.83s12.65-6.224 12.65-13.83V122.266c0-7.607 5.69-13.83 12.646-13.83 6.958 0 12.65 6.223 12.65 13.83v15.006c0 7.606 5.694 13.83 12.65 13.83 6.96 0 12.65-6.224 12.65-13.83v-7.918c0-7.605 5.69-13.83 12.65-13.83 6.956 0 12.65 6.225 12.65 13.83v53.127c0 7.608 5.69 13.83 12.647 13.83s12.65-6.222 12.65-13.83V132.8c0-7.604 5.694-13.83 12.652-13.83 6.957 0 12.65 6.226 12.65 13.83v65.813c0 7.607 5.692 13.83 12.65 13.83 6.954 0 12.647-6.223 12.647-13.83v-88.37c0-7.604 5.693-13.828 12.65-13.828 6.957 0 12.65 6.224 12.65 13.83v44.41c0 7.606 5.693 13.83 12.65 13.83 6.957 0 12.648-6.224 12.648-13.83v-6.766c0-7.607 5.694-13.83 12.65-13.83 6.955 0 12.65 5.162 12.65 11.473 0 6.31 5.692 11.475 12.65 11.475 6.955 0 12.65 6.223 12.65 13.83V181.2c0 7.607 5.69 13.83 12.648 13.83 6.957 0 12.65 6.224 12.65 13.83v16.083c0 7.605 5.692 13.83 12.65 13.83 6.957 0 12.65-6.225 12.65-13.83V202.49c0-7.606-5.693-13.83-12.65-13.83-6.958 0-12.65-6.224-12.65-13.83v-41.1c0-7.607 5.692-13.83 12.65-13.83 6.957 0 12.65-5.998 12.65-13.328 0-7.33 5.692-13.327 12.65-13.327 6.956 0 12.645 6.223 12.645 13.828v50.74c0 7.604 5.695 13.828 12.65 13.828 6.96 0 12.65-6.222 12.65-13.827V140.04c0-7.608 5.694-13.83 12.65-13.83 6.96 0 12.65 6.222 12.65 13.83v3.782c0 7.606 5.694 13.83 12.65 13.83 6.96 0 12.65-6.224 12.65-13.83V130.16c0-7.607 5.694-13.83 12.65-13.83s12.647 6.223 12.647 13.83v8.344c0 7.605 5.695 13.83 12.653 13.83 6.957 0 12.65-6.225 12.65-13.83v-29.94c0-7.607 5.692-13.83 12.648-13.83 6.96 0 12.65 6.223 12.65 13.83v38.932c0 7.605 5.693 13.83 12.652 13.83 6.957 0 12.65-6.225 12.65-13.83V129.55c0-7.607 5.693-13.83 12.65-13.83 6.957 0 12.648 6.223 12.648 13.83v43.888c0 7.605 5.694 13.83 12.65 13.83 6.96 0 12.65-6.225 12.65-13.83V163.21c0-7.604 5.694-13.828 12.65-13.828 6.957 0 12.65 6.224 12.65 13.83v25.414c0 7.607 5.69 13.83 12.648 13.83 6.96 0 12.65-6.223 12.65-13.83V185.3c0-7.606 5.692-13.83 12.652-13.83 6.956 0 12.647-4.305 12.647-9.57 0-5.262 5.693-9.57 12.65-9.57 6.96 0 12.648-6.223 12.648-13.828v-5.35c0-7.607 5.694-13.83 12.65-13.83 6.96 0 12.65 6.223 12.65 13.83v51.996c0 7.607 5.692 13.83 12.65 13.83 6.957 0 12.65-6.223 12.65-13.83v-42.814c0-7.606 5.692-13.828 12.65-13.828 6.957 0 12.647 6.222 12.647 13.828v59.44c0 7.606 5.693 13.832 12.65 13.832 6.957 0 12.648-6.226 12.648-13.83V132.16c0-7.605 5.693-13.83 12.65-13.83 6.96 0 12.652 6.225 12.652 13.83v25.48c0 7.606 5.69 13.83 12.647 13.83s12.65-5.522 12.65-12.273c0-6.75 5.692-12.273 12.65-12.273 6.957 0 12.65 6.224 12.65 13.83v56.092c0 7.607 5.69 13.833 12.65 13.833 6.955 0 12.647-6.228 12.647-13.835v-76.07c0-7.608 5.693-13.83 12.65-13.83 6.958 0 12.653 6.222 12.653 13.83v31.1c0 7.604 5.69 13.828 12.648 13.828 6.957 0 12.65-6.224 12.65-13.83v-69.17c0-7.605 5.692-13.83 12.65-13.83 6.957 0 12.65 6.225 12.65 13.83v88.403c0 7.607 5.69 13.83 12.648 13.83 5.56 0 10.302-3.978 11.986-9.456v-84.757c-1.684-5.478-6.426-9.457-11.986-9.457" fill="#FDDA4C"/>
        <path d="M63.247 205.056c-6.958 0-12.65 5.94-12.65 13.197 0 7.257 5.692 13.196 12.65 13.196s12.647-5.94 12.647-13.198-5.69-13.197-12.647-13.197m101.197 42.04c-6.958 0-12.65 6.223-12.65 13.83v8.26c0 7.607 5.692 13.83 12.65 13.83 6.956 0 12.65-6.223 12.65-13.83v-8.26c0-7.607-5.694-13.83-12.65-13.83m101.196-21.77c-6.96 0-12.652 6.225-12.652 13.83v15.887c0 7.607 5.693 13.83 12.65 13.83 6.96 0 12.652-6.223 12.652-13.83v-15.886c0-7.606-5.693-13.83-12.65-13.83" fill="#FDDA4C"/>
        <path d="M12.65 163.616c-6.958 0-12.65 6.224-12.65 13.83l.003 2.323c0 7.604 5.69 13.83 12.648 13.83 6.958 0 12.648-6.226 12.648-13.83v-2.324c0-7.607-5.69-13.83-12.647-13.83m126.494-44.562c-6.958 0-12.65-3.936-12.65-8.746 0-4.812-5.692-8.747-12.65-8.747s-12.65 6.225-12.65 13.83v6.918c0 7.606 5.692 13.83 12.65 13.83s12.65 5.62 12.65 12.492c0 6.87 5.692 12.492 12.65 12.492s12.65-6.224 12.65-13.83v-14.407c0-7.607-5.692-13.83-12.65-13.83m126.496-13.368c-6.957 0-12.648 5.86-12.648 13.024 0 7.164 5.69 13.025 12.65 13.025 6.957 0 12.65-5.86 12.65-13.023 0-7.162-5.693-13.023-12.65-13.023m101.192 15.522c-6.956 0-12.65-4.772-12.65-10.604 0-5.83-5.69-10.6-12.647-10.6s-12.647 6.224-12.647 13.83v13.106c0 7.606 5.69 13.83 12.647 13.83 6.956 0 12.646 6.045 12.646 13.44 0 7.39 5.695 13.436 12.65 13.436 6.96 0 12.652-6.222 12.652-13.83v-18.778c0-7.607-5.693-13.83-12.65-13.83m75.897 34.264c-6.956 0-12.65 6.224-12.65 13.83v12.968c0 7.607 5.694 13.83 12.65 13.83s12.647-6.223 12.647-13.83v-12.967c0-7.607-5.693-13.83-12.65-13.83m50.603-57.124c-6.958 0-12.65 6.224-12.65 13.83v15.756c0 7.605 5.692 13.83 12.65 13.83 6.96 0 12.65-6.225 12.65-13.83v-15.76c0-7.605-5.69-13.83-12.65-13.83m75.897 90.06c-6.96 0-12.652 6.222-12.652 13.83v7.784c0 7.605 5.693 13.83 12.65 13.83 6.96 0 12.652-6.225 12.652-13.83v-7.784c0-7.608-5.693-13.83-12.65-13.83m75.898-71.762c-6.96 0-12.65 6.224-12.65 13.83v1.938c0 7.607 5.69 13.83 12.65 13.83 6.956 0 12.65-6.223 12.65-13.83v-1.937c0-7.61-5.694-13.833-12.65-13.833m75.895 19.49c-6.96 0-12.652 6.224-12.652 13.83v38.075c0 7.607 5.695 13.83 12.654 13.83 6.957 0 12.65-6.223 12.65-13.83v-38.076c0-7.605-5.692-13.83-12.65-13.83m50.596-8.374c-6.957 0-12.65 6.224-12.65 13.83v.177c0 7.605 5.693 13.83 12.65 13.83 6.957 0 12.648-6.225 12.648-13.83v-.178c0-7.607-5.69-13.83-12.647-13.83" fill="#FEFEFE"/>
    </g>
</svg>
